<svg width="40" height="40" viewBox="0 0 40 40" fill="none" xmlns="http://www.w3.org/2000/svg">
<path d="M0 30.6977H9.30233V40C4.16479 40 0 35.8352 0 30.6977Z" fill="#F1E4D3"/>
<rect y="10.2326" width="9.30233" height="9.30233" fill="#F1E4D3"/>
<rect y="20.4651" width="9.30233" height="9.30233" fill="#F1E4D3"/>
<path d="M0 9.30233C0 4.16479 4.16479 0 9.30233 0H30.6977C35.8352 0 40 4.16479 40 9.30233H0Z" fill="#F1E4D3"/>
<rect x="20.4648" y="30.6977" width="9.30233" height="9.30233" fill="#F1E4D3"/>
<rect x="20.4648" y="10.2326" width="9.30233" height="9.30233" fill="#F1E4D3"/>
<rect x="20.4648" y="20.4651" width="9.30233" height="9.30233" fill="#F1E4D3"/>
<rect x="10.2324" y="30.6977" width="9.30233" height="9.30233" fill="#F1E4D3"/>
<rect x="10.2324" y="10.2326" width="9.30233" height="9.30233" fill="#F1E4D3"/>
<rect x="10.2324" y="20.4651" width="9.30233" height="9.30233" fill="#F1E4D3"/>
<path d="M30.6975 30.6977H39.9998C39.9998 35.8352 35.835 40 30.6975 40V30.6977Z" fill="#F1E4D3"/>
<rect x="30.6975" y="10.2326" width="9.30233" height="9.30233" fill="#F1E4D3"/>
<rect x="30.6975" y="20.4651" width="9.30233" height="9.30233" fill="#F1E4D3"/>
</svg>
