<svg width="40" height="40" viewBox="0 0 40 40" fill="none" xmlns="http://www.w3.org/2000/svg">
<path d="M5.51717 19.3103V33.1034C5.51717 33.4693 5.37185 33.8201 5.11318 34.0788C4.8545 34.3374 4.50367 34.4828 4.13786 34.4828C3.77204 34.4828 3.42121 34.3374 3.16254 34.0788C2.90386 33.8201 2.75854 33.4693 2.75854 33.1034V19.3103C2.75854 18.9445 2.90386 18.5937 3.16254 18.335C3.42121 18.0764 3.77204 17.931 4.13786 17.931C4.50367 17.931 4.8545 18.0764 5.11318 18.335C5.37185 18.5937 5.51717 18.9445 5.51717 19.3103Z" fill="#F1E4D3"/>
<path d="M2.75854 19.3103H37.2413V31.7241H2.75854V19.3103ZM5.51717 8.27586V16.5517H8.27579V15.1724C8.27579 14.8066 8.42111 14.4558 8.67978 14.1971C8.93845 13.9384 9.28928 13.7931 9.6551 13.7931H17.2413C17.6071 13.7931 17.958 13.9384 18.2166 14.1971C18.4753 14.4558 18.6206 14.8066 18.6206 15.1724V16.5628H21.3792V15.1724C21.3792 14.8066 21.5246 14.4558 21.7832 14.1971C22.0419 13.9384 22.3927 13.7931 22.7585 13.7931H30.3447C30.7106 13.7931 31.0614 13.9384 31.3201 14.1971C31.5787 14.4558 31.7241 14.8066 31.7241 15.1724V16.5517H34.4827V8.27586C34.4827 7.54423 34.192 6.84257 33.6747 6.32522C33.1574 5.80788 32.4557 5.51724 31.7241 5.51724H8.27579C7.54415 5.51724 6.84249 5.80788 6.32515 6.32522C5.8078 6.84257 5.51717 7.54423 5.51717 8.27586Z" fill="#F1E4D3"/>
<path d="M37.2413 19.3103V33.1034C37.2413 33.4693 37.096 33.8201 36.8373 34.0788C36.5786 34.3374 36.2278 34.4828 35.862 34.4828C35.4962 34.4828 35.1453 34.3374 34.8867 34.0788C34.628 33.8201 34.4827 33.4693 34.4827 33.1034V19.3103C34.4827 18.9445 34.628 18.5937 34.8867 18.335C35.1453 18.0764 35.4962 17.931 35.862 17.931C36.2278 17.931 36.5786 18.0764 36.8373 18.335C37.096 18.5937 37.2413 18.9445 37.2413 19.3103Z" fill="#F1E4D3"/>
</svg>
