<svg width="103" height="86" viewBox="0 0 103 86" fill="none" xmlns="http://www.w3.org/2000/svg">
<path d="M44.0885 22.3736H68.5921C69.297 22.3736 69.8683 22.9478 69.8683 23.6562C69.8683 24.3646 69.297 24.9388 68.5921 24.9388H44.0885C43.3836 24.9388 42.8123 24.3646 42.8123 23.6562C42.8123 22.9478 43.3836 22.3736 44.0885 22.3736Z" fill="#BC9153"/>
<path d="M44.0885 22.3736H44.9392C44.6008 22.3736 44.2761 22.5088 44.0368 22.7493C43.7975 22.9898 43.663 23.3161 43.663 23.6562C43.663 23.9963 43.7975 24.3226 44.0368 24.5631C44.2761 24.8036 44.6008 24.9388 44.9392 24.9388H44.0885C43.7499 24.9388 43.4254 24.8036 43.1861 24.5631C42.9466 24.3226 42.8123 23.9963 42.8123 23.6562C42.8123 23.3161 42.9466 22.9898 43.1861 22.7493C43.4254 22.5088 43.7499 22.3736 44.0885 22.3736Z" fill="#B38645"/>
<path d="M68.2942 22.2473C68.6485 20.2674 69.0034 18.2876 69.3588 16.3081L70.4355 11.3312L66.5926 12.9558L66.604 12.9763C66.7736 13.1749 66.8832 13.4182 66.9194 13.6774C66.9556 13.9366 66.917 14.2008 66.8084 14.4387C66.6996 14.6766 66.5254 14.8782 66.306 15.0194C66.0869 15.1607 65.8319 15.2358 65.5713 15.2358C65.3109 15.2358 65.0559 15.1607 64.8365 15.0194C64.6174 14.8782 64.4429 14.6766 64.3343 14.4387C64.2255 14.2008 64.187 13.9366 64.2232 13.6774C64.2596 13.4182 64.369 13.1749 64.5388 12.9763L64.5506 12.9558C64.2966 11.4851 64.0422 10.0142 63.7877 8.54317L61.204 12.2717C61.2859 12.522 61.3119 12.7872 61.2801 13.0487C61.1667 13.9396 60.394 14.4014 60.3034 14.4538C59.9655 14.6458 59.5808 14.7381 59.1932 14.7202C58.8056 14.7023 58.431 14.5747 58.1121 14.3523C57.2199 13.7185 57.254 12.6286 57.2614 12.5106C57.3044 11.6282 57.8972 10.833 58.7719 10.4761L56.3549 4.1203H56.3255L53.9102 10.4761C54.7849 10.833 55.3776 11.6282 55.4207 12.5106C55.4264 12.6286 55.4604 13.7185 54.5698 14.3523C54.2511 14.5747 53.8763 14.7021 53.4887 14.7199C53.1011 14.7377 52.7164 14.6453 52.3788 14.4532C52.288 14.4008 51.5154 13.9402 51.402 13.0481C51.3702 12.7866 51.3962 12.5214 51.4781 12.2712L48.8944 8.54259C48.6402 10.0133 48.386 11.4841 48.1316 12.9552L48.1434 12.9757C48.3132 13.1743 48.4225 13.4176 48.4588 13.6768C48.4952 13.9361 48.4566 14.2003 48.3478 14.4382C48.2392 14.676 48.0648 14.8776 47.8456 15.0189C47.6262 15.1602 47.3713 15.2353 47.1108 15.2353C46.8502 15.2353 46.5953 15.1602 46.3761 15.0189C46.1567 14.8776 45.9823 14.676 45.8737 14.4382C45.7649 14.2003 45.7265 13.9361 45.7627 13.6768C45.799 13.4176 45.9083 13.1743 46.0781 12.9757L46.0896 12.9552L42.2449 11.3312L43.3227 16.311C43.6778 18.2909 44.0327 20.2705 44.3873 22.2501L68.2942 22.2473Z" fill="#BC9153"/>
<path d="M58.4117 10.7832C58.4925 10.6461 58.5866 10.5174 58.6925 10.399C58.7186 10.4669 58.7442 10.5353 58.7703 10.6031C58.6464 10.6538 58.5266 10.714 58.4117 10.7832ZM48.9807 12.2271L48.9927 12.2476C49.1377 12.4173 49.2391 12.6201 49.2881 12.8383C49.3371 13.0565 49.3321 13.2834 49.2736 13.4992C49.2149 13.715 49.1048 13.9131 48.9522 14.0761C48.7998 14.2391 48.6101 14.3621 48.3993 14.4343C48.4755 14.2091 48.4918 13.9678 48.4469 13.7343C48.402 13.5008 48.2972 13.2831 48.1429 13.1027L48.1311 13.0822C48.3855 11.6115 48.6395 10.1406 48.8928 8.66956C49.08 8.94051 49.2676 9.21108 49.4554 9.48128L48.9807 12.2271ZM54.7612 9.74749C55.6358 10.1043 56.2286 10.8995 56.2718 11.7819C56.2774 11.8999 56.3115 12.9898 55.4209 13.6237C55.3428 13.679 55.2609 13.7285 55.1758 13.7719C55.349 13.4195 55.4338 13.0299 55.4226 12.637C55.3794 11.7546 54.7868 10.9594 53.9121 10.6025L56.3256 4.2467H56.355L56.6034 4.90223L54.7612 9.74749Z" fill="#B38645"/>
<path d="M43.385 11.9375C43.6473 13.1536 43.9099 14.3676 44.1722 15.5795L45.069 20.5808C45.1162 20.8443 45.2541 21.0824 45.4585 21.2538C45.663 21.4253 45.9209 21.519 46.1871 21.5187H68.4473L68.2941 22.3736H44.3861L43.3215 16.4345L42.2437 11.4547L43.385 11.9375ZM62.0549 11.5431C62.1366 11.7933 62.1625 12.0586 62.1308 12.32C62.0173 13.211 61.2448 13.6727 61.154 13.7251C61.1349 13.736 61.1155 13.7457 61.0973 13.7559C61.1931 13.5751 61.2555 13.3783 61.2816 13.1751C61.3136 12.9136 61.2874 12.6484 61.2057 12.3981L63.7877 8.66956L63.8392 8.96768L62.0549 11.5431ZM67.7712 13.3238C67.7369 13.5757 67.6337 13.813 67.4728 14.0092C67.3118 14.2053 67.0998 14.3525 66.8603 14.4343C66.9364 14.2091 66.9528 13.9678 66.9079 13.7343C66.8628 13.5008 66.758 13.2831 66.6039 13.1027L66.5925 13.0822L67.6845 12.621C67.7743 12.8436 67.8041 13.086 67.7712 13.3238Z" fill="#B38645"/>
<path d="M56.3402 20.3215C55.322 20.3215 54.4968 19.4921 54.4968 18.469C54.4968 17.4458 55.322 16.6164 56.3402 16.6164C57.3584 16.6164 58.1835 17.4458 58.1835 18.469C58.1835 19.4921 57.3584 20.3215 56.3402 20.3215Z" fill="#F1E4D3"/>
<path d="M56.3402 16.6164C56.4835 16.6165 56.6262 16.6333 56.7656 16.6666C56.3621 16.7629 56.0025 16.9932 55.7454 17.3203C55.4881 17.6474 55.3481 18.0521 55.3481 18.469C55.3481 18.8859 55.4881 19.2906 55.7454 19.6176C56.0025 19.9448 56.3621 20.175 56.7656 20.2715C56.5125 20.3318 56.2494 20.3377 55.9938 20.2886C55.7383 20.2396 55.4959 20.1369 55.2827 19.9869C55.0693 19.837 54.8903 19.6434 54.7569 19.4188C54.6235 19.1943 54.5389 18.944 54.5087 18.6842C54.4783 18.4245 54.5032 18.1613 54.5814 17.9119C54.6597 17.6625 54.7896 17.4325 54.9627 17.2372C55.1356 17.0419 55.3478 16.8856 55.5853 16.7786C55.8227 16.6716 56.08 16.6163 56.3402 16.6164Z" fill="#EDD2AF"/>
<path d="M46.6408 19.324C46.1709 19.324 45.79 18.9412 45.79 18.4689C45.79 17.9967 46.1709 17.6139 46.6408 17.6139C47.1106 17.6139 47.4917 17.9967 47.4917 18.4689C47.4917 18.9412 47.1106 19.324 46.6408 19.324Z" fill="#F1E4D3"/>
<path d="M46.6407 17.614C46.7024 17.6141 46.7638 17.621 46.824 17.6345C46.6351 17.6768 46.4662 17.7826 46.3454 17.9343C46.2244 18.086 46.1584 18.2746 46.1584 18.469C46.1584 18.6634 46.2244 18.852 46.3454 19.0037C46.4662 19.1554 46.6351 19.2612 46.824 19.3035C46.7071 19.3297 46.5861 19.3308 46.4689 19.3068C46.3516 19.2828 46.2407 19.2342 46.1433 19.1642C46.0461 19.0942 45.9646 19.0043 45.9042 18.9005C45.8438 18.7967 45.8058 18.6812 45.7929 18.5616C45.7799 18.442 45.7921 18.3211 45.8289 18.2066C45.8657 18.0921 45.9261 17.9867 46.006 17.8973C46.086 17.8079 46.184 17.7364 46.2933 17.6876C46.4027 17.6387 46.521 17.6137 46.6407 17.614Z" fill="#EDD2AF"/>
<path d="M66.0396 19.324C65.5697 19.324 65.1887 18.9412 65.1887 18.4689C65.1887 17.9967 65.5697 17.6139 66.0396 17.6139C66.5095 17.6139 66.8904 17.9967 66.8904 18.4689C66.8904 18.9412 66.5095 19.324 66.0396 19.324Z" fill="#F1E4D3"/>
<path d="M61.4451 20.395L62.9091 18.469L61.4451 16.5428L59.9812 18.469L61.4451 20.395Z" fill="#F1E4D3"/>
<path d="M61.4451 16.5428L61.8704 17.1009L61.0946 18.1213C61.0191 18.2206 60.9781 18.3422 60.9781 18.4673C60.9781 18.5923 61.0191 18.7139 61.0946 18.8133L61.8704 19.837L61.4451 20.3968L59.9812 18.469L61.4451 16.5428Z" fill="#EDD2AF"/>
<path d="M51.2353 20.395L52.6992 18.469L51.2353 16.5428L49.7712 18.469L51.2353 20.395Z" fill="#F1E4D3"/>
<path d="M51.2353 16.5428L51.6607 17.1009L50.8847 18.1213C50.8092 18.2206 50.7683 18.3422 50.7683 18.4673C50.7683 18.5923 50.8092 18.7139 50.8847 18.8133L51.6607 19.837L51.2353 20.3968L49.7712 18.469L51.2353 16.5428Z" fill="#EDD2AF"/>
<path d="M56.3402 10.1465C56.1051 10.1465 55.9148 9.95514 55.9148 9.71903C55.9148 9.48292 56.1051 9.2915 56.3402 9.2915C56.5752 9.2915 56.7655 9.48292 56.7655 9.71903C56.7655 9.95514 56.5752 10.1465 56.3402 10.1465Z" fill="#F1E4D3"/>
<path d="M56.3402 18.925C56.1051 18.925 55.9148 18.7336 55.9148 18.4975C55.9148 18.2613 56.1051 18.0699 56.3402 18.0699C56.5752 18.0699 56.7655 18.2613 56.7655 18.4975C56.7655 18.7336 56.5752 18.925 56.3402 18.925Z" fill="#F1E4D3"/>
<path d="M44.2659 14.3477C44.0308 14.3477 43.8403 14.1563 43.8403 13.9201C43.8403 13.684 44.0308 13.4926 44.2659 13.4926C44.5007 13.4926 44.6912 13.684 44.6912 13.9201C44.6912 14.1563 44.5007 14.3477 44.2659 14.3477Z" fill="#F1E4D3"/>
<path d="M68.4144 14.3477C68.1795 14.3477 67.989 14.1563 67.989 13.9201C67.989 13.684 68.1795 13.4926 68.4144 13.4926C68.6494 13.4926 68.8399 13.684 68.8399 13.9201C68.8399 14.1563 68.6494 14.3477 68.4144 14.3477Z" fill="#F1E4D3"/>
<path d="M49.7713 13.158C49.5365 13.158 49.3459 12.9666 49.3459 12.7304C49.3459 12.4943 49.5365 12.3029 49.7713 12.3029C50.0064 12.3029 50.1969 12.4943 50.1969 12.7304C50.1969 12.9666 50.0064 13.158 49.7713 13.158Z" fill="#F1E4D3"/>
<path d="M62.9092 13.158C62.6742 13.158 62.4836 12.9666 62.4836 12.7304C62.4836 12.4943 62.6742 12.3029 62.9092 12.3029C63.144 12.3029 63.3346 12.4943 63.3346 12.7304C63.3346 12.9666 63.144 13.158 62.9092 13.158Z" fill="#D9D9D9"/>
<path d="M66.0395 17.614C66.1011 17.6141 66.1625 17.621 66.2227 17.6345C66.0339 17.6768 65.8651 17.7826 65.7441 17.9343C65.6231 18.086 65.5571 18.2746 65.5571 18.469C65.5571 18.6634 65.6231 18.852 65.7441 19.0037C65.8651 19.1554 66.0339 19.2612 66.2227 19.3035C66.1059 19.3297 65.9849 19.3308 65.8676 19.3068C65.7503 19.2828 65.6393 19.2342 65.5421 19.1642C65.4448 19.0942 65.3633 19.0043 65.3028 18.9005C65.2424 18.7967 65.2045 18.6812 65.1915 18.5616C65.1785 18.442 65.1909 18.3211 65.2275 18.2066C65.2643 18.0921 65.3247 17.9867 65.4047 17.8973C65.4846 17.8079 65.5826 17.7364 65.692 17.6876C65.8014 17.6387 65.9197 17.6137 66.0395 17.614Z" fill="#EDD2AF"/>
<path d="M25.4198 81.6222C22.1285 81.6222 19.9343 81.071 18.8371 79.9684C17.74 78.8657 17.1914 77.7308 17.1914 76.5634C17.1914 75.4607 17.5786 74.6502 18.3531 74.1312C19.063 73.6123 19.7728 73.353 20.4828 73.353C21.838 73.353 22.5157 73.9367 22.5157 75.1041C22.5157 75.623 22.3221 76.077 21.9348 76.4661C21.4832 76.7904 20.9345 76.9525 20.2892 76.9525C19.8375 76.9525 19.4503 76.8877 19.1275 76.7579C18.8048 76.6282 18.6435 76.5634 18.6435 76.5634C18.6435 77.4064 19.0307 78.282 19.8051 79.1901C20.5151 80.0981 22.064 80.5521 24.4518 80.5521C27.0978 80.5521 29.5179 79.8386 31.7121 78.4118C33.9063 76.92 36.0038 74.9743 38.0044 72.5747C40.0696 70.1101 42.167 67.4186 44.2967 64.5C46.4264 61.5167 48.7174 58.5331 51.1698 55.5498C52.9123 53.4743 54.9452 51.1072 57.2685 48.448C59.6563 45.7888 62.27 43.1946 65.1097 40.6652C68.0138 38.071 71.0792 35.8009 74.3061 33.8552C77.533 31.8447 80.8888 30.4827 84.3738 29.7693C85.2773 29.5747 85.729 29.6395 85.729 29.9638C85.729 30.2882 85.2773 30.5475 84.3738 30.7421C81.4696 31.3906 78.63 32.7851 75.855 34.9254C73.08 37.0656 70.3048 39.6923 67.5298 42.8055C64.8193 45.8538 62.1087 49.129 59.3982 52.6312C56.6877 56.1335 53.9771 59.6033 51.2666 63.0408C48.5561 66.4782 45.7811 69.5913 42.9414 72.3801C40.1664 75.1689 37.3268 77.4064 34.4226 79.0928C31.5185 80.7791 28.5176 81.6222 25.4198 81.6222ZM62.7864 81.6222C60.0114 81.6222 58.1721 81.1033 57.2685 80.0656C56.4296 78.963 56.01 77.7633 56.01 76.4661C56.01 74.261 56.4941 72.3476 57.4621 70.7263C58.4302 69.1049 59.5273 67.6779 60.7535 66.4457C61.9796 65.2135 63.0768 64.0461 64.0448 62.9435C65.0129 61.8408 65.4969 60.7384 65.4969 59.6358C65.4969 58.7277 65.0773 58.1117 64.2384 57.7874C63.3995 57.463 62.5927 57.3009 61.8183 57.3009C61.302 57.3009 60.8503 57.3334 60.463 57.3982C60.1403 57.463 59.979 57.5603 59.979 57.6901C59.979 57.9494 60.1403 58.144 60.463 58.2738C60.8503 58.3386 61.2698 58.3711 61.7215 58.3711C63.7867 58.3711 65.8196 57.7874 67.8202 56.6199C69.8854 55.3877 71.7568 53.8312 73.4349 51.9503C75.1129 50.0046 76.4681 47.9616 77.5006 45.8213C78.5332 43.681 79.0495 41.7028 79.0495 39.8869C79.0495 37.0331 77.6298 34.7308 74.7901 32.9797C71.9505 31.1637 67.5298 30.2557 61.5279 30.2557C57.204 30.2557 53.1382 30.9692 49.3305 32.396C45.5228 33.7579 42.1993 35.5739 39.3597 37.8439C36.52 40.049 34.2935 42.4163 32.6801 44.9457C31.0668 47.4103 30.26 49.7127 30.26 51.853C30.26 53.4095 30.7441 54.7715 31.7121 55.9389C32.6801 57.1064 34.1322 57.6901 36.0683 57.6901C38.1335 57.6901 40.2309 56.9443 42.3606 55.4525C44.5548 53.9607 46.5877 52.1123 48.4593 49.9073C50.3954 47.6372 52.0087 45.2701 53.2995 42.8055C54.5903 40.3408 55.3969 38.1358 55.7196 36.1901C55.8488 35.6064 56.0424 35.3145 56.3005 35.3145C56.5585 35.3145 56.6877 35.6064 56.6877 36.1901C56.6877 39.3032 56.1068 42.2217 54.9452 44.9457C53.7835 47.6697 52.2347 50.0693 50.2986 52.1448C48.3625 54.1553 46.2004 55.7444 43.8127 56.9118C41.4894 58.0792 39.1016 58.6629 36.6491 58.6629C34.1967 58.6629 32.2929 58.0144 30.9377 56.7172C29.6469 55.42 29.0016 53.6041 29.0016 51.2693C29.0016 49.129 29.8405 46.7941 31.5185 44.2647C33.1965 41.7353 35.552 39.3357 38.5852 37.0656C41.683 34.7308 45.2971 32.8499 49.4273 31.4231C53.6223 29.9313 58.2042 29.1855 63.1736 29.1855C66.6585 29.1855 69.8531 29.7045 72.7572 30.7421C75.6614 31.7798 77.9847 33.3363 79.7271 35.4118C81.5341 37.4873 82.4377 40.114 82.4377 43.2919C82.4377 45.3674 81.76 47.3779 80.4048 49.3236C79.114 51.2045 77.4362 52.8906 75.3709 54.3824C73.3057 55.8741 71.1115 57.0416 68.7882 57.8846C66.4649 58.7277 64.2708 59.1493 62.2055 59.1493C60.9147 59.1493 59.979 59.0521 59.3982 58.8575C58.8818 58.5981 58.6238 58.2413 58.6238 57.7874C58.6238 57.463 58.8497 57.1712 59.3014 56.9118C59.8177 56.6524 60.7535 56.5227 62.1087 56.5227C62.8832 56.5227 63.7544 56.6524 64.7224 56.9118C65.6905 57.1064 66.5294 57.5603 67.2394 58.2738C68.0138 58.9873 68.401 60.0897 68.401 61.5815C68.401 63.592 67.8847 65.4081 66.8521 67.0294C65.8841 68.6508 64.7548 70.1101 63.464 71.4073C62.1732 72.6395 61.0115 73.8069 59.979 74.9095C59.011 75.9472 58.527 76.985 58.527 78.0227C58.527 78.9307 58.8497 79.5792 59.495 79.9684C60.205 80.3575 61.0762 80.5521 62.1087 80.5521C63.9803 80.5521 65.8518 80.0331 67.7234 78.9955C69.6595 77.8929 71.4664 76.4661 73.1444 74.715C74.8224 72.9638 76.2099 71.0829 77.307 69.0724C78.4687 67.0619 79.1787 65.0837 79.4367 63.138C79.5659 62.4245 79.7595 62.1652 80.0176 62.3598C80.3403 62.5543 80.5339 62.976 80.5984 63.6245C80.8565 65.181 80.4371 66.9969 79.3399 69.0724C78.3074 71.0829 76.8553 73.0611 74.9837 75.0068C73.1768 76.8877 71.176 78.4766 68.9818 79.7738C66.8521 81.006 64.7869 81.6222 62.7864 81.6222Z" fill="#F1E4D3"/>
<path d="M0.12915 84.8326C0.12915 85.4058 0.591453 85.8702 1.16173 85.8702C1.73201 85.8702 2.19431 85.4058 2.19431 84.8326C2.19431 84.2594 1.73201 83.7949 1.16173 83.7949C0.591453 83.7949 0.12915 84.2594 0.12915 84.8326ZM100.806 84.8326C100.806 85.4058 101.268 85.8702 101.838 85.8702C102.409 85.8702 102.871 85.4058 102.871 84.8326C102.871 84.2594 102.409 83.7949 101.838 83.7949C101.268 83.7949 100.806 84.2594 100.806 84.8326ZM1.16173 85.0271H101.838V84.638H1.16173V85.0271Z" fill="#F1E4D3"/>
</svg>
