<svg width="45" height="45" viewBox="0 0 45 45" fill="none" xmlns="http://www.w3.org/2000/svg">
<path d="M30.6914 29.4258C29.7071 29.083 31.6846 29.7686 30.6914 29.4258V29.4258Z" fill="#F1E4D3"/>
<path d="M30.6914 29.4258C29.5049 29.0127 28.2217 28.9863 27.0352 28.5732C26.6748 28.4502 25.9629 28.3008 25.8135 27.8877C25.6729 27.4834 25.6729 27.0088 25.6465 26.5869C25.6289 26.2529 25.6201 25.9189 25.6201 25.585C25.6201 25.3652 26.1826 24.8994 26.3057 24.6973C26.7803 23.9063 26.8242 22.8428 26.9121 21.9463C27.6768 22.1572 27.7734 20.7422 27.9053 20.3115C28.002 20.0127 28.5908 17.9561 27.6768 18.2373C27.8965 17.8506 27.9844 17.376 28.0459 16.9453C28.2217 15.8203 28.292 14.5898 27.9492 13.4912C27.2373 11.2061 25.0488 9.92285 22.7373 9.85254C20.3906 9.77344 18.0352 10.8984 17.1562 13.1748C16.7344 14.2822 16.7695 15.4863 16.9102 16.6465C16.9717 17.1738 17.0596 17.7627 17.3232 18.2373C16.4707 17.9824 16.9277 19.793 17.0244 20.1094C17.165 20.5576 17.2881 22.166 18.0879 21.9463C18.1582 22.6582 18.2373 23.3877 18.4307 24.082C18.5625 24.5479 18.835 24.9434 19.1514 25.3037C19.3096 25.4795 19.3887 25.4971 19.3799 25.7256C19.3711 26.4111 19.3887 27.1494 19.2129 27.8174C19.0371 28.4854 17.5693 28.7666 16.9805 28.8897C15.3984 29.2148 13.9395 29.3643 12.6211 30.3486C11.083 31.4824 10.2832 33.249 10.2832 35.1562H34.7168C34.7168 32.5635 33.1523 30.2783 30.6914 29.4258Z" fill="#F1E4D3"/>
<path d="M12.5947 28.3447L12.7354 28.2744C12.709 28.2832 12.6826 28.3008 12.665 28.3096C12.6387 28.3184 12.6211 28.3271 12.5947 28.3447Z" fill="#F1E4D3"/>
<path d="M12.5947 28.3447C12.2959 28.4941 11.9355 28.6787 12.665 28.3096L12.7354 28.2744C13.333 27.9932 13.9746 27.9229 14.6162 27.8613C14.8623 27.835 14.9766 27.668 14.792 27.4307C14.4404 26.9824 13.2275 26.8945 12.7178 26.6924C12.4014 26.5693 12.3135 26.4551 12.2871 26.1035C12.2783 25.9453 12.1904 25.2422 12.3135 25.1279C12.4014 25.04 12.9551 25.0752 13.0781 25.0576C13.5791 24.9961 14.0889 24.8906 14.5635 24.7061C14.7656 24.627 14.959 24.5303 15.1348 24.4072C15.3457 24.249 14.9766 23.8623 14.8799 23.6514C14.5811 22.9922 14.4492 22.2715 14.4053 21.5508C14.3174 20.1357 14.5371 18.7119 14.2734 17.3057C13.8779 15.1523 12.2168 14.0713 10.0986 14.0713C8.78906 14.0713 7.49707 14.5195 6.76758 15.6621C5.95898 16.9189 6.00293 18.4834 6.04688 19.916C6.07324 20.7334 6.1084 21.5596 5.99414 22.377C5.94141 22.7285 5.86231 23.0713 5.73926 23.4053C5.64258 23.6602 5.15039 24.293 5.34375 24.4248C6.07324 24.9434 7.30371 25.1191 8.18262 25.0488C8.20898 25.4795 8.28809 26.0332 8.12988 26.4375C7.88379 27.0703 6.04688 27.2373 5.49316 27.4219C3.95508 27.9316 2.8125 29.1797 2.8125 30.9375H9.79981C9.91406 30.9375 10.3535 30.1201 10.4766 29.9883C11.0742 29.3291 11.8037 28.7578 12.5947 28.3447ZM39.4893 27.4131C38.7773 27.1846 37.4062 27.1143 36.8965 26.499C36.6416 26.1914 36.7822 25.4092 36.8086 25.04C37.1953 25.0752 37.6172 25.0137 38.0127 24.9609C38.3731 24.9082 38.7246 24.8379 39.0674 24.7148C39.2256 24.6533 39.3838 24.5918 39.5332 24.5039C39.876 24.3018 39.7178 24.2666 39.542 23.9678C38.584 22.3594 39.0147 20.3203 38.9707 18.5537C38.9356 17.0859 38.5488 15.4775 37.2129 14.6514C36.0088 13.9043 34.2246 13.8779 32.9326 14.4053C29.2061 15.8994 31.4033 20.8389 30.1289 23.6689C29.9092 24.1436 29.5928 24.3105 30.1465 24.5918C30.4541 24.75 30.7881 24.8555 31.1221 24.9346C31.6318 25.0576 32.1592 25.1279 32.6865 25.1455C32.7744 25.1455 32.7129 26.2529 32.6865 26.3672C32.5898 26.7979 31.6494 26.9209 31.2979 27.0176C30.9375 27.1143 30.3398 27.1406 30.1641 27.5186C29.9004 28.0811 31.0342 27.9404 31.3154 27.9932C32.2207 28.1602 33.0205 28.6611 33.7236 29.2324C34.251 29.6631 34.9629 30.2432 35.1563 30.9463H42.2051C42.1875 29.1797 41.0361 27.9229 39.4893 27.4131Z" fill="#F1E4D3"/>
</svg>
