<svg width="25" height="25" viewBox="0 0 25 25" fill="none" xmlns="http://www.w3.org/2000/svg">
<path d="M23.7305 19.1699C23.7305 21.6782 21.6782 23.7305 19.1699 23.7305H5.83013C3.32178 23.7305 1.26953 21.6782 1.26953 19.1699V5.83013C1.26953 3.32183 3.32178 1.26953 5.83013 1.26953H19.1699C21.6782 1.26953 23.7305 3.32183 23.7305 5.83013V19.1699Z" fill="#4A4A4A"/>
<path d="M14.1809 11.3801L19.5837 4.64624H18.0188L13.3987 10.405L8.77808 4.64624H3.61938L10.8191 13.6199L5.41577 20.3542H6.98071L11.6013 14.595L16.2224 20.3542H21.3811L14.1809 11.3801ZM6.16333 5.86689H8.19214L18.8367 19.1335H16.8079L6.16333 5.86689Z" fill="#F8F8F8"/>
</svg>
