<svg width="25" height="25" viewBox="0 0 25 25" fill="none" xmlns="http://www.w3.org/2000/svg">
<path d="M23.9583 10.1146C24.0098 8.62364 23.6838 7.14381 23.0104 5.81254C22.5535 5.26629 21.9195 4.89766 21.2187 4.77088C18.3203 4.50788 15.4099 4.40009 12.5 4.44796C9.60066 4.39792 6.70073 4.50223 3.81249 4.76046C3.24147 4.86433 2.71303 5.13217 2.29165 5.53129C1.35415 6.39588 1.24999 7.87504 1.14582 9.12504C0.994687 11.3725 0.994687 13.6276 1.14582 15.875C1.17596 16.5786 1.28071 17.2769 1.45832 17.9584C1.58392 18.4845 1.83803 18.9712 2.1979 19.375C2.62214 19.7953 3.16289 20.0784 3.74999 20.1875C5.99573 20.4648 8.25855 20.5796 10.5208 20.5313C14.1667 20.5834 17.3646 20.5313 21.1458 20.2396C21.7473 20.1372 22.3033 19.8537 22.7396 19.4271C23.0312 19.1354 23.249 18.7783 23.375 18.3855C23.7475 17.2424 23.9305 16.046 23.9167 14.8438C23.9583 14.2605 23.9583 10.7396 23.9583 10.1146ZM10.1458 15.4688V9.02088L16.3125 12.2605C14.5833 13.2188 12.3021 14.3021 10.1458 15.4688Z" fill="#4A4A4A"/>
</svg>
